<?xml version="1.0" encoding="UTF-8" standalone="no"?>
<svg
   xmlns:dc="http://purl.org/dc/elements/1.1/"
   xmlns:cc="http://creativecommons.org/ns#"
   xmlns:rdf="http://www.w3.org/1999/02/22-rdf-syntax-ns#"
   xmlns:svg="http://www.w3.org/2000/svg"
   xmlns="http://www.w3.org/2000/svg"
   version="1.1"
   id="svg2"
   xml:space="preserve"
   width="358.760825621"
   height="278.73723344"
   viewBox="0 0 386.12799 300"><metadata
     id="metadata8"><rdf:RDF><cc:Work
         rdf:about=""><dc:format>image/svg+xml</dc:format><dc:type
           rdf:resource="http://purl.org/dc/dcmitype/StillImage" /><dc:title></dc:title></cc:Work></rdf:RDF></metadata><defs
     id="defs6" /><g
     id="g10"
     transform="matrix(0.58104852,0,0,-0.58104852,0,300)"><g
       id="g12"
       transform="scale(0.1,0.1)"><path
         d="m 6361.35,3725.36 c -172.02,190.27 -416.18,360.27 -725.65,505.21 -620.26,289.81 -1441.61,449.39 -2312.78,449.39 -871.09,0 -1692.57,-159.57 -2313.12,-449.33 C 700.934,4085.97 456.793,3915.99 284.047,3725.39 95.5352,3516.72 0,3292.45 0,3058.7 0,2824.9 95.5352,2600.63 283.969,2392.12 456.645,2201.11 700.816,2031.08 1009.7,1886.75 c 620.03,-289.8 1441.55,-449.4 2313.22,-449.4 871.84,0 1693.2,159.6 2312.75,449.43 309.54,144.6 553.75,314.67 725.82,505.48 188.33,207.85 283.88,432.11 283.88,666.44 0,234.27 -95.58,458.57 -284.02,666.66"
         style="fill:#ffffff;fill-opacity:1;fill-rule:nonzero;stroke:none"
         id="path14" /><path
         d="m 6301.98,3671.62 c -164.83,182.34 -400.44,346.03 -700.23,486.45 C 4991.9,4443 4182.58,4599.9 3322.92,4599.9 2463.34,4599.9 1653.85,4443 1043.66,4158.09 744.527,4017.96 508.918,3854.28 343.363,3671.62 168.688,3478.25 80.0742,3272.03 80.0742,3058.7 c 0,-213.4 88.6138,-419.58 263.2888,-612.89 165.555,-183.11 401.133,-346.76 700.227,-486.52 609.64,-284.95 1419.14,-441.88 2279.33,-441.88 860.34,0 1669.64,156.93 2278.83,441.89 299.79,140.07 535.4,303.73 700.3,486.56 174.66,192.81 263.26,399.01 263.26,612.84 0,213.77 -88.6,420 -263.33,612.92"
         style="fill:#0d0a08;fill-opacity:1;fill-rule:nonzero;stroke:none"
         id="path16" /><path
         d="m 2825.48,5163.08 -47.28,-56.68 c -36.21,-43.41 -141.56,-165.67 -193.56,-209.68 -24.23,-20.54 -88.98,-72.4 -143.75,-106.34 l -236.75,109.76 -502.49,-246.4 -184.74,413.2 c 0,0 -518.664,-431.43 -844.012,-417.01 -28.906,0 -156.804,31.7 -156.804,31.7 l 54.472,-780.07 279.145,37.8 c 12.164,-80.75 25.23,-206.23 27.477,-282.67 -0.176,-20.48 -3.969,-306.46 -69.528,-540.75 l -10.512,-37.55 23.086,-31.42 c 0.649,-0.95 99.356,-143.86 113.727,-450.57 -74.02,-41.02 -264.816,-130.93 -573.145,-171.07 l -93.796,-12.19 27.531,-90.5 c 7.195,-23.66 179.008,-583.79 415.637,-976.41 l 42.449,-70.44 69.281,44.35 c 46.051,29.47 418.332,295.29 567.902,416.7 75.25,-28.12 229.12,-83.91 347.61,-116.15 24.08,-84.1 74.4,-329.9 55.39,-641.62 l -3.87,-63.648 61.17,-18.031 c 5.09,-1.5 127.38,-36.942 359.58,-53.629 l 93.34,-5.782 28.29,-1.738 23.08,16.406 c 14.9,10.622 347.34,247.262 436.52,313.902 2.34,0.14 5.32,0.24 9.01,0.24 41.86,0 149.78,-12.42 402.38,-95.62 l 81.39,-26.8 21.23,83.01 219.67,858.74 c 75.55,-59.9 184.8,-141.06 294.12,-203.28 l 35.28,-20.08 37.06,16.61 c 8.71,3.88 178.8,81.15 373.39,242.88 -2.08,-151.92 -15.33,-398.89 -66.11,-719.59 l -13.66,-86.19 485.38,-22.01 15.15,8.27 c 115.46,63.17 262.85,133.86 298.25,138.37 -0.07,0 0,-0.01 0.14,-0.01 0.76,0 166.25,21.74 412.42,-70.32 12.64,-3.87 93.14,-27.13 206.81,-27.13 18.63,0 621.56,20.71 621.56,20.71 l -254.56,790.44 -0.31,1.01 c -1,3.55 -132.24,478.85 -132.24,478.85 0,0 -388.24,357.2 -439.21,575.01 -14.81,258.07 309.97,431.19 309.97,431.19 l -42.87,211.41 c 27.11,11.15 64.34,22.99 106.96,27.02 30.17,2.86 75.77,4.31 135.47,4.31 104.33,0 214.28,-4.55 215.42,-4.61 l 85.3,-3.57 -1.93,85.38 -12.35,549.89 -0.24,10.16 -2.76,9.79 c -4.59,16.33 -113.77,401.64 -194.6,561.37 l -38.25,75.52 -73.26,-42.37 c -1.92,-1.1 -201.37,-114.76 -520.24,-203.13 l -62.4,-17.29 3.85,-64.63 c 2.9,-50.56 -2.32,-111.42 -11.06,-136.09 -21.82,-67.5 -784.22,180.96 -784.22,180.96 l -605.96,-38.75 -514.54,347.8 -41.93,-30.34 -188.59,-136.41 -274.03,193.27 -60.34,42.54 0,0"
         style="fill:#ffffff;fill-opacity:1;fill-rule:nonzero;stroke:none"
         id="path18" /><path
         d="m 5765.61,2491.08 c 0,0 -387.61,339.86 -446.83,606.2 0,0 -31.79,274.88 299.77,482.05 l -43.94,216.63 c 0,0 79.24,52.58 190,63.02 110.77,10.51 361.76,0 361.76,0 l -12.37,549.9 c 0,0 -110.74,392.32 -189,546.96 0,0 -204.79,-118.38 -538.93,-210.99 0,0 5.99,-152.25 -29.39,-206.67 0,0 -33.37,-48.38 -235.45,-2.4 -199.5,45.39 -525.67,139.07 -617.32,167 -1.05,0.4 -2.13,0.68 -3.15,1.03 0,0 -499.24,-26.71 -531.67,-30.58 l 17.11,-136.49 -224.31,6.68 c 0,0 62.95,167.06 62.95,169.9 0,0 -416.18,277.86 -429.46,285.49 l -234.94,-169.93 -320.77,226.22 c 0,0 -134.53,-161.29 -203.31,-219.49 0,0 -112.57,-95.52 -192.76,-135.59 l -225.36,109.75 c 0,0 -29.74,-11.54 -84.16,-36.4 0,0 -236.52,-99.09 -473.25,-234.73 l -165.6,391.52 c 0,0 -557.109,-467.05 -883.406,-359.19 l 52.168,-569.34 c 0,0 246.52,42.61 246.52,38.75 0,0 42.922,-244.42 46.758,-382.8 0,0 -0.922,-307.42 -72.508,-563.22 0,0 124.028,-168.89 130.718,-542.2 0,0 -211.285,-149.87 -644.332,-206.21 0,0 173.399,-569.77 407.606,-958.39 0,0 517.416,340.84 621.466,441.04 0,0 272.06,-105 426.7,-141.28 0,0 71.9,-285.4 45.81,-713.14 0,0 116.44,-34.289 342.7,-50.559 l 92.57,-5.73 c 0,0 384.11,273.369 446.78,321.689 0,0 53.19,45.78 472.59,-92.37 l 250.95,981.08 c 0,0 192.23,-168.99 380,-275.86 0,0 247.19,110.77 483.01,348.45 0,0 26.74,-338.21 -63.91,-910.74 0,0 307.29,-21.86 369.37,-17.18 0,0 263.51,144.23 331.19,147.99 0,0 156.35,8.94 441.03,-73.47 0,0 97.45,-31.48 235.82,-22.03 l 460.12,15.36 c 0,0 -201.45,611.82 -222.37,692.95 0,0 -102.23,357.03 -126.97,457.32"
         style="fill:#0d0a08;fill-opacity:1;fill-rule:nonzero;stroke:none"
         id="path20" /><path
         d="M 1000.5,74.3203 C 943.043,28.1094 859.98,0 763.801,0 672.617,0 591.426,27.4805 534.594,74.9492 483.379,117.422 456.523,174.25 456.523,239.832 c 0,64.949 27.481,121.156 78.696,163.629 57.457,47.461 139.273,75.57 228.582,75.57 118.039,0 207.972,-37.472 263.559,-107.422 l -114.294,-39.98 c -36.843,38.73 -88.687,59.34 -149.89,59.34 -117.414,0 -198.606,-64.949 -198.606,-151.137 0,-47.461 21.86,-85.57 66.2,-114.91 33.726,-22.492 81.195,-36.8634 133.031,-36.8634 91.808,0 166.125,39.3514 196.105,94.9334 l -219.215,0 0,87.438 340.999,0 0,-26.231 c 0,-68.699 -27.48,-126.16 -81.19,-169.8787"
         style="fill:#0d0a08;fill-opacity:1;fill-rule:nonzero;stroke:none"
         id="path22" /><path
         d="m 2030.29,382.852 -99.3,-185.493 198.6,0 z m 197.35,-369.7309 -51.83,97.4299 -289.79,0 -51.84,-97.4299 -111.17,0 240.45,452.1679 135.53,0 239.82,-452.1679 -111.17,0"
         style="fill:#0d0a08;fill-opacity:1;fill-rule:nonzero;stroke:none"
         id="path24" /><path
         d="m 3574.7,13.1211 0,321.0079 -1.88,0 -215.46,-259.1798 -215.47,259.1798 -1.87,0 0,-321.0079 -109.92,0 0,452.1679 128.65,0 198.61,-239.828 198.61,239.828 128.65,0 0,-452.1679 -109.92,0"
         style="fill:#0d0a08;fill-opacity:1;fill-rule:nonzero;stroke:none"
         id="path26" /><path
         d="m 4453.35,13.1211 0,452.1679 490.26,0 0,-86.809 -380.35,0 0,-92.429 264.18,0 0,-86.821 -264.18,0 0,-99.3003 397.83,0 0,-86.8086 -507.74,0"
         style="fill:#0d0a08;fill-opacity:1;fill-rule:nonzero;stroke:none"
         id="path28" /><path
         d="m 5914.69,388.469 c -94.31,0 -143.02,-18.11 -143.02,-47.469 0,-15.609 13.12,-26.23 39.35,-32.469 43.09,-10.621 101.17,-7.5 171.12,-13.742 141.78,-13.117 209.84,-47.469 209.84,-136.148 C 6191.98,60.582 6099.55,2.5 5927.8,2.5 c -113.03,0 -206.72,24.9805 -293.53,84.9414 l 59.96,73.6996 c 77.44,-47.469 154.26,-69.9496 238.57,-69.9496 91.18,0 142.4,26.2306 142.4,63.0706 0,39.968 -58.71,39.968 -154.89,44.347 -176.12,7.5 -262.93,42.473 -262.93,133.02 0,88.691 88.68,144.902 252.32,144.902 110.53,0 199.85,-22.48 266.05,-66.199 l -62.46,-72.453 c -63.7,34.351 -128.03,50.59 -198.6,50.59"
         style="fill:#0d0a08;fill-opacity:1;fill-rule:nonzero;stroke:none"
         id="path30" /><path
         d="m 2981.89,3896.51 c 193.7,21.88 339.54,111.58 339.54,111.58 -164.41,-279.81 -339.54,-111.58 -339.54,-111.58"
         style="fill:#ffffff;fill-opacity:1;fill-rule:nonzero;stroke:none"
         id="path32" /><path
         d="m 3709.61,4250.66 c 0,0 -97.58,-78.06 -159.98,-104.99 -1.13,-0.46 -4.38,-0.46 -5.66,1.37 -10.04,14.25 -54.86,78.57 -76.9,127.31 -2.43,5.26 -4.6,10.37 -6.34,15.21 0,0 -20.42,40.38 -48,148.33 0,0 -3.33,-108.87 22.3,-189.25 0,0 23.68,-77.79 61.56,-116.96 1.91,-2.01 3.76,-7.3 -0.85,-10.19 -14.79,-9.52 -54,-33.28 -116.37,-60.62 -1.86,-0.81 -7.12,-1.15 -9.72,1.35 -21.53,20.8 -123.56,126.69 -187.98,325.79 -0.2,0.62 -0.36,1.22 -0.58,1.85 0,0 8.61,-129.79 34.73,-199.74 24.25,-64.77 68.89,-125.09 94.26,-147.13 1.98,-1.83 5.57,-5.48 2.6,-7.51 -8.41,-5.78 -40.48,-21 -162.2,-51.86 -1.65,-0.48 -5.68,-0.39 -6.93,1.3 -13.06,17.78 -88.18,120.41 -109.4,157.65 0,0 -29.95,52.34 -96.07,247.29 0,0 31.81,-329.07 145.53,-425.63 0,0 -97.41,-50.86 -166.91,-33.28 0,0 -44.23,0 -121.77,160.72 0,0 -79.73,168.86 -275.51,406.55 -0.65,0.81 -0.8,2.66 1.22,3.47 15.3,5.83 83.11,33.1 112.25,62.24 0,0 124.17,173.11 196.75,252.23 0.83,0.97 2.24,2.79 4.81,0.63 l 251.83,-198.65 c 0,0 4.37,-4.74 7.85,-0.6 4.4,4.12 132.16,115.22 132.16,115.22 0,0 1.68,2.95 6,0.45 l 137.91,-78.64 c 0,0 3.53,-1.66 5.7,0.79 l 99.86,114.39 c 0,0 2.96,3.47 6.24,0.8 3.08,-2.68 173.98,-144.59 173.98,-144.59 0,0 1.74,-3.97 -0.13,-6.93 -12.77,-21.17 -58.97,-115.02 24.58,-259.28 0,0 46.15,-93.17 29.18,-109.09"
         style="fill:#ffffff;fill-opacity:1;fill-rule:nonzero;stroke:none"
         id="path34" /><path
         d="m 5929.32,4494.68 c -30.6,113.11 -102.69,237.22 -102.69,237.22 l -308.29,-156.03 c -111.23,-330.79 -301.2,-257.82 -438.66,-250.15 -137.42,7.66 -597.08,184.26 -597.08,184.26 -9.34,3 -10.7,3.65 -10.7,3.77 l -329.13,-38.1 c 0,0 55.85,-230.57 39.11,-320.8 -16.66,-90.2 -82.98,-112.65 -288.24,-148.92 -205.21,-36.26 -193.38,-36.26 -313.59,-111.17 -120.29,-74.98 -324.59,-315.51 -324.59,-315.51 -8.06,-2.86 -169.4,-33.88 -169.4,-33.88 -170.48,-30.1 -240.14,7.14 -240.14,7.14 -80.2,27.73 -210.92,149.42 -210.92,149.42 -8.17,4.72 -5.78,10.95 -5.78,10.95 30.56,63.94 65.46,169.43 65.46,169.43 9.34,38.32 7.55,53.01 -76.38,192.34 -72.62,120.33 -78.34,125.99 -143.23,206.71 -80.21,104.97 -354.16,265.39 -354.16,265.39 -4.75,2.81 -7.63,2.81 -7.63,2.81 l -129.49,-113.55 c -150.25,-28.02 -422.58,-165.47 -422.58,-165.47 -61.09,267.28 -165.5,447.99 -165.5,447.99 C 960.449,4382.54 746.633,4433.4 746.633,4433.4 l 26.746,-319.44 c 304.211,19.07 511.651,173.03 511.651,173.03 -72.54,-109.39 -249.47,-202.3 -249.47,-202.3 77.63,-164.19 114.58,-266.05 128.56,-392.04 14.03,-125.99 -85.3,-552.39 -85.3,-552.39 24.24,-43.29 101.83,-435.33 101.83,-435.33 34.38,-231.62 -20.35,-414.89 -20.35,-414.89 l -1.29,155.25 -85.23,7.66 c -28.02,-53.45 -96.776,-104.37 -96.776,-104.37 -57.231,-40.73 -290.207,-96.75 -290.207,-96.75 3.867,-8.91 58.59,-213.79 82.754,-276.18 24.187,-62.42 141.312,-304.21 141.312,-304.21 119.617,67.51 444.197,327.14 444.197,327.14 59.76,49.61 104.36,68.68 125.98,77.58 21.58,8.94 71.31,7.66 119.64,16.62 48.36,8.88 248.2,139.97 248.2,139.97 -16.51,12.74 -132.37,288.86 -156.52,356.34 -24.24,67.46 -63.69,345.01 -63.69,345.01 -12.72,8.89 -207.46,-20.41 -207.46,-20.41 182.06,171.84 455.67,134.88 455.67,134.88 213.79,5.15 272.34,-412.34 272.34,-412.34 -10.16,-7.65 -185.8,-390.74 -185.8,-390.74 -86.54,-152.71 -43.29,-308.03 -43.29,-308.03 12.76,-20.31 73.85,-342.37 73.85,-342.37 16.52,-36.85 42.04,-456.97 42.04,-456.97 l 240.53,1.34 c 435.26,277.43 404.73,257.07 463.26,272.32 58.55,15.3 305.52,-62.37 305.52,-62.37 l 212.52,506.63 -520.6,212.5 -5.1,-165.45 c -95.44,57.27 -75.05,367.84 -66.15,441.72 8.88,73.79 58.6,467.06 58.6,467.06 24.13,104.33 -29.32,166.77 -29.32,170.55 0,3.86 -235.46,339.88 -235.46,339.88 -293.75,-282.77 -654.26,-190.96 -654.26,-190.96 493.87,10.19 719.12,407.31 719.12,407.31 l 173.09,-75.12 c 1.31,-8.86 -50.85,-198.56 -50.85,-198.56 156.54,-68.73 232.87,-265.97 231.61,-263.39 -1.27,2.48 -127.25,122.1 -127.25,122.1 l -12.75,-89.19 c 36.89,-25.54 53.45,-57.15 53.45,-57.15 54.77,-54.73 31.82,-184.52 31.82,-184.52 5.1,-5.16 -77.61,-598.28 -77.61,-598.28 l 542.21,-231.62 c 29.29,113.3 15.26,274.89 -7.62,365.31 -22.93,90.44 -151.45,511.67 -151.45,511.67 -62.35,220.16 40.71,497.68 40.71,497.68 l 92.91,-15.25 c -34.36,-281.3 -12.72,-437.88 -12.72,-437.88 67.46,-570.17 599.47,-847.68 599.47,-847.68 435.27,249.47 680.89,570.2 680.89,570.2 17.85,-169.24 -53.23,-1094.46 -53.23,-1094.46 72.52,-11.97 164.67,-16.72 164.67,-16.72 17.65,0.58 308.81,117.95 308.81,117.95 9.06,5.29 15.73,1.92 15.73,1.92 l 499.69,-78.75 c 21.98,-2.41 327.59,0.29 327.59,0.29 -112.56,487.23 -128.08,798.24 -128.08,798.24 L 5210,2883.8 l 0.1,-1.15 c 17.46,-169.96 39.52,-226.12 48.38,-242.75 -181.52,277.02 -86.84,512.55 -48.48,631.97 38.61,120.28 199.06,400.92 199.06,400.92 -19.6,303.06 -78.8,432.91 -78.8,432.91 66.83,-34.85 87.35,-162.76 87.35,-162.76 200.94,152.72 527.9,117.35 527.9,117.35 6.67,246.33 -16.19,434.39 -16.19,434.39 M 2013.08,3450.81 c 0,0 39.16,95.44 25.82,139.77 -0.8,2.57 -1.79,5.06 -2.93,7.26 0,0 -250.13,-251.95 -582.29,-34.3 0,0 61.11,-30.57 120.27,-30.57 l 1.95,353.17 c 0,0 -51.6,-17.18 -152.84,-120.33 0,0 95.5,227.22 475.47,353.23 0,0 196.6,-133.62 299.75,-176.55 0,0 -22.96,-369.47 -185.2,-491.68 m 1862.41,-636.65 c -223.52,22.52 -282.54,241.44 -282.54,241.44 -10.54,-78.26 39.14,-143.14 39.14,-143.14 -89.8,60.14 -83.07,139.34 -83.07,139.34 -11.48,-103.03 66.81,-211.9 66.81,-211.9 -121.16,89.74 -110.82,224.35 -110.82,224.35 2.02,177.58 6.79,243.35 126.1,389.46 119.29,146.05 187.09,150.8 269.15,167.06 82.18,16.21 189.1,-5.73 189.1,-5.73 226.23,-29.61 271.98,-161.33 271.98,-161.33 -77.3,51.55 -174.66,73.52 -174.66,73.52 324.87,-343.65 -36.53,-740.77 -311.19,-713.07 m 988.99,995.62 c 0,0 -8.66,-217.65 -10.56,-243.45 -1.98,-25.81 0.99,-110.66 -15.26,-165.11 0,0 -166.13,-447.71 -246.31,-501.16 l -40.09,296.85 -103.03,-209.98 c 0,0 15.21,160.39 55.3,217.64 0,0 144.19,287.3 146.99,316.93 0,0 31.56,62.96 7.66,78.26 0,0 -289.29,287.38 -619.5,330.33 l 700.66,30.51 c 0,0 291.11,-207.14 315.99,-228.2 0,0 -103.11,15.27 -191.85,77.38"
         style="fill:#ee2722;fill-opacity:1;fill-rule:nonzero;stroke:none"
         id="path36" /></g></g></svg>